<mxGraphModel dx="1140" dy="851" grid="1" gridSize="10" guides="1" tooltips="1" connect="1" arrows="1" fold="1" page="1" pageScale="1" pageWidth="1654" pageHeight="1169" math="0" shadow="0"><root><mxCell id="0"/><mxCell id="1" parent="0"/><mxCell id="w1-2-header" value="Недели 1-2" style="rounded=0;whiteSpace=wrap;html=1;fillColor=#dae8fc;strokeColor=#6c8ebf;fontStyle=1;fontSize=14;" parent="1" vertex="1"><mxGeometry x="240" y="40" width="160" height="40" as="geometry"/></mxCell><mxCell id="w3-5-header" value="Недели 3-5" style="rounded=0;whiteSpace=wrap;html=1;fillColor=#dae8fc;strokeColor=#6c8ebf;fontStyle=1;fontSize=14;" parent="1" vertex="1"><mxGeometry x="400" y="40" width="240" height="40" as="geometry"/></mxCell><mxCell id="w6-7-header" value="Недели 6-7" style="rounded=0;whiteSpace=wrap;html=1;fillColor=#dae8fc;strokeColor=#6c8ebf;fontStyle=1;fontSize=14;" parent="1" vertex="1"><mxGeometry x="640" y="40" width="160" height="40" as="geometry"/></mxCell><mxCell id="w8-header" value="Неделя 8" style="rounded=0;whiteSpace=wrap;html=1;fillColor=#dae8fc;strokeColor=#6c8ebf;fontStyle=1;fontSize=14;" parent="1" vertex="1"><mxGeometry x="800" y="40" width="80" height="40" as="geometry"/></mxCell><mxCell id="title" value="Task 4: Детальный план передачи ставок в кол-центр (8 недель)" style="text;html=1;strokeColor=none;fillColor=none;align=center;verticalAlign=middle;whiteSpace=wrap;rounded=0;fontStyle=1;fontSize=16;fontColor=#FFFFFF;" parent="1" vertex="1"><mxGeometry x="240" y="10" width="640" height="30" as="geometry"/></mxCell><mxCell id="sys1-label" value="АБС Сервис интеграции&#10;депозитов" style="rounded=0;whiteSpace=wrap;html=1;fillColor=#e1d5e7;strokeColor=#9673a6;fontStyle=1;align=left;verticalAlign=middle;spacingLeft=10;" parent="1" vertex="1"><mxGeometry x="40" y="100" width="200" height="60" as="geometry"/></mxCell><mxCell id="t1-abs-bg" value="" style="rounded=0;whiteSpace=wrap;html=1;fillColor=#fff2cc;strokeColor=#d6b656;opacity=30;" parent="1" vertex="1"><mxGeometry x="240" y="100" width="160" height="60" as="geometry"/></mxCell><mxCell id="t1-abs" value="T1: Настройка SOAP&#10;интеграции с АБС" style="rounded=1;whiteSpace=wrap;html=1;fillColor=#d5e8d4;strokeColor=#82b366;" parent="1" vertex="1"><mxGeometry x="250" y="110" width="140" height="40" as="geometry"/></mxCell><mxCell id="sys2-label" value="SFTP" style="rounded=0;whiteSpace=wrap;html=1;fillColor=#e1d5e7;strokeColor=#9673a6;fontStyle=1;align=left;verticalAlign=middle;spacingLeft=10;" parent="1" vertex="1"><mxGeometry x="40" y="170" width="200" height="60" as="geometry"/></mxCell><mxCell id="t2-sftp-bg" value="" style="rounded=0;whiteSpace=wrap;html=1;fillColor=#fff2cc;strokeColor=#d6b656;opacity=30;" parent="1" vertex="1"><mxGeometry x="240" y="170" width="160" height="60" as="geometry"/></mxCell><mxCell id="t2-sftp" value="T2: Развертывание&#10;SFTP сервера" style="rounded=1;whiteSpace=wrap;html=1;fillColor=#ffe6cc;strokeColor=#d79b00;" parent="1" vertex="1"><mxGeometry x="250" y="180" width="140" height="40" as="geometry"/></mxCell><mxCell id="sys3-label" value="Система колл-центра" style="rounded=0;whiteSpace=wrap;html=1;fillColor=#e1d5e7;strokeColor=#9673a6;fontStyle=1;align=left;verticalAlign=middle;spacingLeft=10;" parent="1" vertex="1"><mxGeometry x="40" y="240" width="200" height="60" as="geometry"/></mxCell><mxCell id="t3-cc-bg" value="" style="rounded=0;whiteSpace=wrap;html=1;fillColor=#fff2cc;strokeColor=#d6b656;opacity=30;" parent="1" vertex="1"><mxGeometry x="400" y="240" width="240" height="60" as="geometry"/></mxCell><mxCell id="t3-cc" value="T3: Rate API + Redis Cache" style="rounded=1;whiteSpace=wrap;html=1;fillColor=#ffe6cc;strokeColor=#d79b00;" parent="1" vertex="1"><mxGeometry x="410" y="250" width="220" height="40" as="geometry"/></mxCell><mxCell id="sys4-label" value="Система партнерского&#10;колл-центра" style="rounded=0;whiteSpace=wrap;html=1;fillColor=#e1d5e7;strokeColor=#9673a6;fontStyle=1;align=left;verticalAlign=middle;spacingLeft=10;" parent="1" vertex="1"><mxGeometry x="40" y="310" width="200" height="60" as="geometry"/></mxCell><mxCell id="t4-partner-bg" value="" style="rounded=0;whiteSpace=wrap;html=1;fillColor=#fff2cc;strokeColor=#d6b656;opacity=30;" parent="1" vertex="1"><mxGeometry x="400" y="310" width="240" height="60" as="geometry"/></mxCell><mxCell id="t4-partner" value="T4: File Generator + Scheduler" style="rounded=1;whiteSpace=wrap;html=1;fillColor=#ffe6cc;strokeColor=#d79b00;" parent="1" vertex="1"><mxGeometry x="410" y="320" width="220" height="40" as="geometry"/></mxCell><mxCell id="sys5-label" value="Интеграция кол-центра" style="rounded=0;whiteSpace=wrap;html=1;fillColor=#e1d5e7;strokeColor=#9673a6;fontStyle=1;align=left;verticalAlign=middle;spacingLeft=10;" parent="1" vertex="1"><mxGeometry x="40" y="380" width="200" height="60" as="geometry"/></mxCell><mxCell id="t5-integration-bg" value="" style="rounded=0;whiteSpace=wrap;html=1;fillColor=#fff2cc;strokeColor=#d6b656;opacity=30;" parent="1" vertex="1"><mxGeometry x="640" y="380" width="160" height="60" as="geometry"/></mxCell><mxCell id="t5-integration" value="T5: Интеграция&#10;банковского кол-центра" style="rounded=1;whiteSpace=wrap;html=1;fillColor=#e1d5e7;strokeColor=#9673a6;" parent="1" vertex="1"><mxGeometry x="650" y="390" width="140" height="40" as="geometry"/></mxCell><mxCell id="sys6-label" value="Интеграция партнера" style="rounded=0;whiteSpace=wrap;html=1;fillColor=#e1d5e7;strokeColor=#9673a6;fontStyle=1;align=left;verticalAlign=middle;spacingLeft=10;" parent="1" vertex="1"><mxGeometry x="40" y="450" width="200" height="60" as="geometry"/></mxCell><mxCell id="t6-partner-int-bg" value="" style="rounded=0;whiteSpace=wrap;html=1;fillColor=#fff2cc;strokeColor=#d6b656;opacity=30;" parent="1" vertex="1"><mxGeometry x="640" y="450" width="160" height="60" as="geometry"/></mxCell><mxCell id="t6-partner-int" value="T6: Интеграция&#10;партнерского кол-центра" style="rounded=1;whiteSpace=wrap;html=1;fillColor=#e1d5e7;strokeColor=#9673a6;" parent="1" vertex="1"><mxGeometry x="650" y="460" width="140" height="40" as="geometry"/></mxCell><mxCell id="sys7-label" value="Тестирование и запуск" style="rounded=0;whiteSpace=wrap;html=1;fillColor=#e1d5e7;strokeColor=#9673a6;fontStyle=1;align=left;verticalAlign=middle;spacingLeft=10;" parent="1" vertex="1"><mxGeometry x="40" y="520" width="200" height="60" as="geometry"/></mxCell><mxCell id="t7-testing-bg" value="" style="rounded=0;whiteSpace=wrap;html=1;fillColor=#f8cecc;strokeColor=#b85450;opacity=20;" parent="1" vertex="1"><mxGeometry x="800" y="520" width="80" height="60" as="geometry"/></mxCell><mxCell id="t7-testing" value="T7: Testing&#10;&amp; Go-Live" style="rounded=1;whiteSpace=wrap;html=1;fillColor=#f8cecc;strokeColor=#b85450;" parent="1" vertex="1"><mxGeometry x="810" y="530" width="60" height="40" as="geometry"/></mxCell><mxCell id="phase1-label" value="Фаза 1: Инфраструктура" style="text;html=1;strokeColor=#d6b656;fillColor=#fff2cc;align=center;verticalAlign=middle;whiteSpace=wrap;rounded=1;fontStyle=1;" parent="1" vertex="1"><mxGeometry x="240" y="600" width="160" height="30" as="geometry"/></mxCell><mxCell id="phase2-label" value="Фаза 2: Разработка" style="text;html=1;strokeColor=#d79b00;fillColor=#ffe6cc;align=center;verticalAlign=middle;whiteSpace=wrap;rounded=1;fontStyle=1;" parent="1" vertex="1"><mxGeometry x="400" y="600" width="240" height="30" as="geometry"/></mxCell><mxCell id="phase3-label" value="Фаза 3: Интеграция" style="text;html=1;strokeColor=#9673a6;fillColor=#e1d5e7;align=center;verticalAlign=middle;whiteSpace=wrap;rounded=1;fontStyle=1;" parent="1" vertex="1"><mxGeometry x="640" y="600" width="160" height="30" as="geometry"/></mxCell><mxCell id="phase4-label" value="Фаза 4: Testing" style="text;html=1;strokeColor=#b85450;fillColor=#f8cecc;align=center;verticalAlign=middle;whiteSpace=wrap;rounded=1;fontStyle=1;" parent="1" vertex="1"><mxGeometry x="800" y="600" width="80" height="30" as="geometry"/></mxCell></root></mxGraphModel>